<?xml version="1.0" encoding="UTF-8" standalone="no"?>
<svg
   height="24"
   viewBox="0 0 24 24"
   width="24"
   version="1.1"
   id="svg69"
   sodipodi:docname="ad-units.svg"
   inkscape:version="1.1.1 (c3084ef, 2021-09-22)"
   xmlns:inkscape="http://www.inkscape.org/namespaces/inkscape"
   xmlns:sodipodi="http://sodipodi.sourceforge.net/DTD/sodipodi-0.dtd"
   xmlns="http://www.w3.org/2000/svg"
   xmlns:svg="http://www.w3.org/2000/svg">
  <defs
     id="defs73" />
  <sodipodi:namedview
     id="namedview71"
     pagecolor="#ffffff"
     bordercolor="#666666"
     borderopacity="1.0"
     inkscape:pageshadow="2"
     inkscape:pageopacity="0.0"
     inkscape:pagecheckerboard="0"
     showgrid="true"
     showguides="true"
     inkscape:guide-bbox="true"
     inkscape:zoom="26.208333"
     inkscape:cx="4.4833068"
     inkscape:cy="12.019078"
     inkscape:window-width="1440"
     inkscape:window-height="900"
     inkscape:window-x="0"
     inkscape:window-y="0"
     inkscape:window-maximized="0"
     inkscape:current-layer="svg69"
     inkscape:snap-page="false"
     inkscape:snap-grids="true"
     inkscape:snap-global="true"
     inkscape:snap-others="true">
    <inkscape:grid
       type="xygrid"
       id="grid589" />
    <sodipodi:guide
       position="12,17"
       orientation="1,0"
       id="guide591" />
    <sodipodi:guide
       position="1,4"
       orientation="0,-1"
       id="guide848" />
    <sodipodi:guide
       position="0,19"
       orientation="0,-1"
       id="guide850" />
    <sodipodi:guide
       position="3,8"
       orientation="0,-1"
       id="guide892" />
  </sodipodi:namedview>
  <path
     d="M0 0h24v24H0z"
     fill="none"
     id="path65" />
  <path
     id="path67"
     d="M 7 1 C 5.9 1 5 1.9 5 3 L 5 21 C 5 22.1 5.9 23 7 23 L 17 23 C 18.1 23 19 22.1 19 21 L 19 3 C 19 1.9 18.1 1 17 1 L 7 1 z M 7 5 L 17 5 L 17 9 L 7 9 L 7 5 z M 11.960938 12.552734 A 3.682035 3.682035 0 0 1 15.644531 16.234375 A 3.682035 3.682035 0 0 1 11.960938 19.917969 A 3.682035 3.682035 0 0 1 8.2792969 16.234375 A 3.682035 3.682035 0 0 1 11.960938 12.552734 z M 12.019531 13.8125 A 2.5182831 2.4228935 0 0 0 9.5 16.234375 A 2.5182831 2.4228935 0 0 0 12.019531 18.658203 A 2.5182831 2.4228935 0 0 0 14.537109 16.234375 A 2.5182831 2.4228935 0 0 0 12.019531 13.8125 z " />
</svg>
