<?xml version="1.0" encoding="UTF-8" standalone="no"?>
<svg
   xmlns:dc="http://purl.org/dc/elements/1.1/"
   xmlns:cc="http://creativecommons.org/ns#"
   xmlns:rdf="http://www.w3.org/1999/02/22-rdf-syntax-ns#"
   xmlns:svg="http://www.w3.org/2000/svg"
   xmlns="http://www.w3.org/2000/svg"
   xmlns:sodipodi="http://sodipodi.sourceforge.net/DTD/sodipodi-0.dtd"
   xmlns:inkscape="http://www.inkscape.org/namespaces/inkscape"
   height="24"
   viewBox="0 0 24 24"
   width="24"
   version="1.1"
   id="svg869"
   sodipodi:docname="icon.svg"
   inkscape:version="0.92.3 (2405546, 2018-03-11)">
  <metadata
     id="metadata875">
    <rdf:RDF>
      <cc:Work
         rdf:about="">
        <dc:format>image/svg+xml</dc:format>
        <dc:type
           rdf:resource="http://purl.org/dc/dcmitype/StillImage" />
        <dc:title />
      </cc:Work>
    </rdf:RDF>
  </metadata>
  <defs
     id="defs873" />
  <sodipodi:namedview
     pagecolor="#ffffff"
     bordercolor="#666666"
     borderopacity="1"
     objecttolerance="10"
     gridtolerance="10"
     guidetolerance="10"
     inkscape:pageopacity="0"
     inkscape:pageshadow="2"
     inkscape:window-width="1920"
     inkscape:window-height="1017"
     id="namedview871"
     showgrid="true"
     showguides="true"
     inkscape:snap-bbox="true"
     inkscape:object-paths="true"
     inkscape:snap-intersection-paths="true"
     inkscape:snap-midpoints="true"
     inkscape:snap-object-midpoints="true"
     inkscape:snap-center="false"
     inkscape:snap-text-baseline="true"
     inkscape:snap-grids="true"
     inkscape:guide-bbox="true"
     inkscape:zoom="11.313709"
     inkscape:cx="33.298013"
     inkscape:cy="16.096089"
     inkscape:window-x="0"
     inkscape:window-y="30"
     inkscape:window-maximized="1"
     inkscape:current-layer="svg869">
    <inkscape:grid
       type="xygrid"
       id="grid879" />
    <sodipodi:guide
       position="5,3"
       orientation="1,0"
       id="guide883"
       inkscape:locked="false" />
    <sodipodi:guide
       position="7,1"
       orientation="0,1"
       id="guide885"
       inkscape:locked="false" />
    <sodipodi:guide
       position="19,3.040976"
       orientation="1,0"
       id="guide887"
       inkscape:locked="false" />
    <sodipodi:guide
       position="8,17"
       orientation="1,0"
       id="guide889"
       inkscape:locked="false" />
    <sodipodi:guide
       position="16,16.703156"
       orientation="1,0"
       id="guide891"
       inkscape:locked="false" />
    <sodipodi:guide
       position="12,14.6193"
       orientation="1,0"
       id="guide893"
       inkscape:locked="false" />
  </sodipodi:namedview>
  <path
     d="M0 0h24v24H0z"
     fill="none"
     id="path865" />
  <path
     d="M 7,1 C 5.9,1 5,1.9 5,3 V 23 H 7 V 5 h 10 v 18 h 2 V 3 C 19,1.9 18.1,1 17,1 Z m 1,6 v 6 h 8 V 7 Z m 4,8 c -2.209139,0 -4.0000001,1.790861 -4,4 -1e-7,2.209139 1.790861,4 4,4 2.209139,0 4,-1.790861 4,-4 0,-2.209139 -1.790861,-4 -4,-4 z m 1.636719,1.873047 c 0.187751,-0.02883 0.424767,0.01172 0.621093,0.289062 0.392655,0.554679 -0.162109,0.947266 -0.162109,0.947266 l -1.109375,0.785156 c 0,0 -0.554613,0.39257 -0.947266,-0.162109 -0.392654,-0.554679 0.16211,-0.947266 0.16211,-0.947266 L 13.310547,17 c 0,0 0.13842,-0.09812 0.326172,-0.126953 z"
     id="path867"
     inkscape:connector-curvature="0"
     sodipodi:nodetypes="ssccccccssscccccssssssccccccs" />
</svg>
